<svg width="43" height="40" viewBox="0 0 43 40" fill="none" xmlns="http://www.w3.org/2000/svg">
<path d="M42.029 28.3492C42.029 35.6213 37.4689 39.9566 29.8196 39.9566H27.3189C26.1631 39.9566 25.2174 39.0576 25.2174 37.9588V26.4313C25.2174 25.8919 25.6797 25.4324 26.2471 25.4324L29.9457 25.3725C30.2399 25.3525 30.4921 25.1527 30.5551 24.873L31.2906 21.0571C31.3537 20.6975 31.0595 20.3579 30.6602 20.3579L26.1841 20.4178C25.5957 20.4178 25.1334 19.9783 25.1124 19.4389L25.0283 14.5442C25.0283 14.2246 25.3015 13.9449 25.6587 13.9449L30.7022 13.8649C31.0595 13.8649 31.3327 13.6052 31.3327 13.2656L31.2486 8.47078C31.2486 8.13115 30.9754 7.87145 30.6182 7.87145L24.9442 7.95139C21.4558 8.01132 18.6819 10.7284 18.745 14.0448L18.85 19.5388C18.871 20.0982 18.4087 20.5377 17.8203 20.5577L15.2986 20.5976C14.9413 20.5976 14.6682 20.8574 14.6682 21.197L14.7312 24.9929C14.7312 25.3325 15.0044 25.5922 15.3616 25.5922L17.8834 25.5523C18.4718 25.5523 18.9341 25.9918 18.9551 26.5312L19.1442 37.9188C19.1652 39.0376 18.2196 39.9566 17.0428 39.9566H12.2094C4.56015 39.9566 0 35.6213 0 28.3292V11.6074C0 4.33529 4.56015 0 12.2094 0H29.8196C37.4689 0 42.029 4.33529 42.029 11.6074V28.3492Z" fill="#FFF7F7"/>
</svg>
