<svg width="41" height="41" viewBox="0 0 41 41" fill="none" xmlns="http://www.w3.org/2000/svg">
<path d="M29.3044 0.929199H12.4196C5.08534 0.929199 0.713013 5.26449 0.713013 12.5366V29.2584C0.713013 36.5505 5.08534 40.8858 12.4196 40.8858H29.2842C36.6185 40.8858 40.9908 36.5505 40.9908 29.2784V12.5366C41.0109 5.26449 36.6386 0.929199 29.3044 0.929199ZM20.862 28.6591C16.5501 28.6591 13.0442 25.1829 13.0442 20.9075C13.0442 16.6322 16.5501 13.1559 20.862 13.1559C25.1738 13.1559 28.6798 16.6322 28.6798 20.9075C28.6798 25.1829 25.1738 28.6591 20.862 28.6591ZM32.7902 10.6786C32.6894 10.9184 32.5484 11.1381 32.367 11.3379C32.1655 11.5177 31.9439 11.6576 31.7021 11.7574C31.4603 11.8573 31.1984 11.9173 30.9364 11.9173C30.3924 11.9173 29.8887 11.7175 29.5059 11.3379C29.3245 11.1381 29.1835 10.9184 29.0827 10.6786C28.982 10.4389 28.9216 10.1792 28.9216 9.91944C28.9216 9.65972 28.982 9.4 29.0827 9.16026C29.1835 8.90055 29.3245 8.70076 29.5059 8.50098C29.9693 8.04148 30.6745 7.82172 31.3193 7.96157C31.4603 7.98154 31.5812 8.0215 31.7021 8.08143C31.823 8.12139 31.9439 8.18133 32.0648 8.26124C32.1655 8.32117 32.2663 8.42107 32.367 8.50098C32.5484 8.70076 32.6894 8.90055 32.7902 9.16026C32.8909 9.4 32.9513 9.65972 32.9513 9.91944C32.9513 10.1792 32.8909 10.4389 32.7902 10.6786Z" fill="#FFF7F7"/>
</svg>
